<mxfile host="app.diagrams.net" modified="2024-05-31T11:27:36.086Z" agent="Mozilla/5.0 (Windows NT 10.0; Win64; x64) AppleWebKit/537.36 (KHTML, like Gecko) Chrome/123.0.0.0 Safari/537.36 OPR/109.0.0.0" etag="BnOPpphZwwH9Gko7CNMn" version="24.4.11" type="github">
  <diagram id="C5RBs43oDa-KdzZeNtuy" name="Page-1">
    <mxGraphModel dx="809" dy="506" grid="1" gridSize="10" guides="1" tooltips="1" connect="1" arrows="1" fold="1" page="1" pageScale="1" pageWidth="827" pageHeight="1169" math="0" shadow="0">
      <root>
        <mxCell id="WIyWlLk6GJQsqaUBKTNV-0" />
        <mxCell id="WIyWlLk6GJQsqaUBKTNV-1" parent="WIyWlLk6GJQsqaUBKTNV-0" />
        <mxCell id="XTaNPVDyZfdnZvveZso0-5" value="" style="edgeStyle=orthogonalEdgeStyle;rounded=0;orthogonalLoop=1;jettySize=auto;html=1;" edge="1" parent="WIyWlLk6GJQsqaUBKTNV-1" source="XTaNPVDyZfdnZvveZso0-1" target="XTaNPVDyZfdnZvveZso0-4">
          <mxGeometry relative="1" as="geometry" />
        </mxCell>
        <mxCell id="XTaNPVDyZfdnZvveZso0-1" value="Start" style="ellipse;whiteSpace=wrap;html=1;" vertex="1" parent="WIyWlLk6GJQsqaUBKTNV-1">
          <mxGeometry x="340" y="20" width="110" height="70" as="geometry" />
        </mxCell>
        <mxCell id="XTaNPVDyZfdnZvveZso0-7" value="" style="edgeStyle=orthogonalEdgeStyle;rounded=0;orthogonalLoop=1;jettySize=auto;html=1;" edge="1" parent="WIyWlLk6GJQsqaUBKTNV-1">
          <mxGeometry relative="1" as="geometry">
            <mxPoint x="394.7132558139535" y="190" as="sourcePoint" />
            <mxPoint x="395" y="250" as="targetPoint" />
            <Array as="points">
              <mxPoint x="394.69" y="205" />
              <mxPoint x="394.69" y="205" />
            </Array>
          </mxGeometry>
        </mxCell>
        <mxCell id="XTaNPVDyZfdnZvveZso0-4" value="Halaman Utama" style="whiteSpace=wrap;html=1;" vertex="1" parent="WIyWlLk6GJQsqaUBKTNV-1">
          <mxGeometry x="335" y="130" width="120" height="60" as="geometry" />
        </mxCell>
        <mxCell id="XTaNPVDyZfdnZvveZso0-9" value="" style="edgeStyle=orthogonalEdgeStyle;rounded=0;orthogonalLoop=1;jettySize=auto;html=1;" edge="1" parent="WIyWlLk6GJQsqaUBKTNV-1" source="XTaNPVDyZfdnZvveZso0-6" target="XTaNPVDyZfdnZvveZso0-8">
          <mxGeometry relative="1" as="geometry" />
        </mxCell>
        <mxCell id="XTaNPVDyZfdnZvveZso0-6" value="Menampilkan Artikel" style="whiteSpace=wrap;html=1;" vertex="1" parent="WIyWlLk6GJQsqaUBKTNV-1">
          <mxGeometry x="334" y="250" width="125" height="60" as="geometry" />
        </mxCell>
        <mxCell id="XTaNPVDyZfdnZvveZso0-11" value="" style="edgeStyle=orthogonalEdgeStyle;rounded=0;orthogonalLoop=1;jettySize=auto;html=1;" edge="1" parent="WIyWlLk6GJQsqaUBKTNV-1" source="XTaNPVDyZfdnZvveZso0-8" target="XTaNPVDyZfdnZvveZso0-10">
          <mxGeometry relative="1" as="geometry">
            <Array as="points">
              <mxPoint x="200" y="400" />
            </Array>
          </mxGeometry>
        </mxCell>
        <mxCell id="XTaNPVDyZfdnZvveZso0-8" value="&lt;font style=&quot;font-size: 11px;&quot;&gt;User memilih artikel?&lt;/font&gt;" style="rhombus;whiteSpace=wrap;html=1;align=center;" vertex="1" parent="WIyWlLk6GJQsqaUBKTNV-1">
          <mxGeometry x="331.5" y="360" width="130" height="80" as="geometry" />
        </mxCell>
        <mxCell id="XTaNPVDyZfdnZvveZso0-13" value="" style="edgeStyle=orthogonalEdgeStyle;rounded=0;orthogonalLoop=1;jettySize=auto;html=1;" edge="1" parent="WIyWlLk6GJQsqaUBKTNV-1" source="XTaNPVDyZfdnZvveZso0-10" target="XTaNPVDyZfdnZvveZso0-12">
          <mxGeometry relative="1" as="geometry" />
        </mxCell>
        <mxCell id="XTaNPVDyZfdnZvveZso0-10" value="Halaman Baca&lt;div&gt;Artikel&lt;/div&gt;" style="whiteSpace=wrap;html=1;" vertex="1" parent="WIyWlLk6GJQsqaUBKTNV-1">
          <mxGeometry x="140" y="420" width="120" height="60" as="geometry" />
        </mxCell>
        <mxCell id="XTaNPVDyZfdnZvveZso0-15" value="" style="edgeStyle=orthogonalEdgeStyle;rounded=0;orthogonalLoop=1;jettySize=auto;html=1;" edge="1" parent="WIyWlLk6GJQsqaUBKTNV-1" source="XTaNPVDyZfdnZvveZso0-12" target="XTaNPVDyZfdnZvveZso0-14">
          <mxGeometry relative="1" as="geometry" />
        </mxCell>
        <mxCell id="XTaNPVDyZfdnZvveZso0-12" value="Membaca Artikel" style="whiteSpace=wrap;html=1;" vertex="1" parent="WIyWlLk6GJQsqaUBKTNV-1">
          <mxGeometry x="140" y="525" width="120" height="60" as="geometry" />
        </mxCell>
        <mxCell id="XTaNPVDyZfdnZvveZso0-17" value="" style="edgeStyle=orthogonalEdgeStyle;rounded=0;orthogonalLoop=1;jettySize=auto;html=1;" edge="1" parent="WIyWlLk6GJQsqaUBKTNV-1" source="XTaNPVDyZfdnZvveZso0-14" target="XTaNPVDyZfdnZvveZso0-16">
          <mxGeometry relative="1" as="geometry" />
        </mxCell>
        <mxCell id="XTaNPVDyZfdnZvveZso0-14" value="Kembali Ke -&amp;nbsp;&lt;div&gt;Home Page&lt;/div&gt;" style="whiteSpace=wrap;html=1;" vertex="1" parent="WIyWlLk6GJQsqaUBKTNV-1">
          <mxGeometry x="140" y="630" width="120" height="60" as="geometry" />
        </mxCell>
        <mxCell id="XTaNPVDyZfdnZvveZso0-30" value="" style="edgeStyle=orthogonalEdgeStyle;rounded=0;orthogonalLoop=1;jettySize=auto;html=1;" edge="1" parent="WIyWlLk6GJQsqaUBKTNV-1" source="XTaNPVDyZfdnZvveZso0-16">
          <mxGeometry relative="1" as="geometry">
            <mxPoint x="440" y="1070" as="targetPoint" />
            <Array as="points">
              <mxPoint x="200" y="940" />
              <mxPoint x="201" y="940" />
              <mxPoint x="201" y="1040" />
              <mxPoint x="440" y="1040" />
            </Array>
          </mxGeometry>
        </mxCell>
        <mxCell id="XTaNPVDyZfdnZvveZso0-16" value="Memilih artikel lagi?" style="rhombus;whiteSpace=wrap;html=1;" vertex="1" parent="WIyWlLk6GJQsqaUBKTNV-1">
          <mxGeometry x="135" y="720" width="130" height="90" as="geometry" />
        </mxCell>
        <mxCell id="XTaNPVDyZfdnZvveZso0-18" value="YA" style="text;strokeColor=none;align=center;fillColor=none;html=1;verticalAlign=middle;whiteSpace=wrap;rounded=0;" vertex="1" parent="WIyWlLk6GJQsqaUBKTNV-1">
          <mxGeometry x="240" y="377" width="60" height="30" as="geometry" />
        </mxCell>
        <mxCell id="XTaNPVDyZfdnZvveZso0-24" value="" style="edgeStyle=orthogonalEdgeStyle;rounded=0;orthogonalLoop=1;jettySize=auto;html=1;targetPerimeterSpacing=2;entryX=0.001;entryY=0.392;entryDx=0;entryDy=0;entryPerimeter=0;" edge="1" parent="WIyWlLk6GJQsqaUBKTNV-1">
          <mxGeometry relative="1" as="geometry">
            <mxPoint x="135" y="765" as="sourcePoint" />
            <mxPoint x="135.12" y="448.5200000000001" as="targetPoint" />
            <Array as="points">
              <mxPoint x="135" y="765" />
              <mxPoint x="75" y="765" />
              <mxPoint x="75" y="449" />
            </Array>
          </mxGeometry>
        </mxCell>
        <mxCell id="XTaNPVDyZfdnZvveZso0-25" value="YA" style="text;strokeColor=none;align=center;fillColor=none;html=1;verticalAlign=middle;whiteSpace=wrap;rounded=0;" vertex="1" parent="WIyWlLk6GJQsqaUBKTNV-1">
          <mxGeometry x="75" y="740" width="60" height="30" as="geometry" />
        </mxCell>
      </root>
    </mxGraphModel>
  </diagram>
</mxfile>
